<svg xmlns="http://www.w3.org/2000/svg" width="805" height="600"><rect width="805" height="600" x="0" y="0" fill="#FFFFFF" id="background"/><g id="viz"><g transform="translate(0,0)"><g transform="translate(50,20)"><g class="bars"><rect id="undefined - Rock" x="558.9996648793566" y="127.55555555555554" height="432.44444444444446" width="92.00150804289544" fill="#e377c2"/><rect id="undefined - Pop-Rock" x="465.99949731903484" y="0" height="560" width="92.00150804289544" fill="#8c564b"/><rect id="undefined - Heavy Metal" x="186.99899463806972" y="62.22222222222225" height="497.77777777777777" width="92.00150804289544" fill="#2ca02c"/><rect id="undefined - Urbano" x="651.9998324396782" y="90.7407407407407" height="469.2592592592593" width="92.00150804289544" fill="#7f7f7f"/><rect id="undefined - Pop" x="372.99932975871315" y="111.99999999999997" height="448" width="92.00150804289544" fill="#9467bd"/><rect id="undefined - Indie" x="279.99916219839145" y="130.66666666666663" height="429.33333333333337" width="92.00150804289544" fill="#d62728"/><rect id="undefined - EDM" x="0.9986595174262902" y="93.33333333333331" height="466.6666666666667" width="92.00150804289544" fill="#1f77b4"/><rect id="undefined - Electronic" x="93.998827077748" y="124.44444444444444" height="435.55555555555554" width="92.00150804289544" fill="#ff7f0e"/></g><g id="xAxis" transform="translate(0,560)" fill="none" font-size="10" font-family="sans-serif" text-anchor="middle"><path class="domain" stroke="currentColor" d="M0,0H745"/><g class="tick" opacity="1" transform="translate(46.99941353887401,0)"><line stroke="currentColor" y2="6"/><text fill="currentColor" y="9" dy="0.71em">EDM</text></g><g class="tick" opacity="1" transform="translate(139.99958109919572,0)"><line stroke="currentColor" y2="6"/><text fill="currentColor" y="9" dy="0.71em">Electronic</text></g><g class="tick" opacity="1" transform="translate(232.99974865951742,0)"><line stroke="currentColor" y2="6"/><text fill="currentColor" y="9" dy="0.71em">Heavy Metal</text></g><g class="tick" opacity="1" transform="translate(325.9999162198392,0)"><line stroke="currentColor" y2="6"/><text fill="currentColor" y="9" dy="0.71em">Indie</text></g><g class="tick" opacity="1" transform="translate(419.0000837801609,0)"><line stroke="currentColor" y2="6"/><text fill="currentColor" y="9" dy="0.71em">Pop</text></g><g class="tick" opacity="1" transform="translate(512.0002513404826,0)"><line stroke="currentColor" y2="6"/><text fill="currentColor" y="9" dy="0.71em">Pop-Rock</text></g><g class="tick" opacity="1" transform="translate(605.0004189008043,0)"><line stroke="currentColor" y2="6"/><text fill="currentColor" y="9" dy="0.71em">Rock</text></g><g class="tick" opacity="1" transform="translate(698.000586461126,0)"><line stroke="currentColor" y2="6"/><text fill="currentColor" y="9" dy="0.71em">Urbano</text></g><text x="745" y="-4" text-anchor="end" style="font-family: Arial, sans-serif; font-size: 12px; fill: rgb(123, 123, 123); font-weight: bold;">Género</text></g><g id="yAxis" fill="none" font-size="10" font-family="sans-serif" text-anchor="end"><path class="domain" stroke="currentColor" d="M-6,560H0V0H-6"/><g class="tick" opacity="1" transform="translate(0,560)"><line stroke="currentColor" x2="-6"/><text fill="currentColor" x="-9" dy="0.32em">0</text></g><g class="tick" opacity="1" transform="translate(0,497.77777777777777)"><line stroke="currentColor" x2="-6"/><text fill="currentColor" x="-9" dy="0.32em">1</text></g><g class="tick" opacity="1" transform="translate(0,435.55555555555554)"><line stroke="currentColor" x2="-6"/><text fill="currentColor" x="-9" dy="0.32em">2</text></g><g class="tick" opacity="1" transform="translate(0,373.33333333333337)"><line stroke="currentColor" x2="-6"/><text fill="currentColor" x="-9" dy="0.32em">3</text></g><g class="tick" opacity="1" transform="translate(0,311.11111111111114)"><line stroke="currentColor" x2="-6"/><text fill="currentColor" x="-9" dy="0.32em">4</text></g><g class="tick" opacity="1" transform="translate(0,248.88888888888889)"><line stroke="currentColor" x2="-6"/><text fill="currentColor" x="-9" dy="0.32em">5</text></g><g class="tick" opacity="1" transform="translate(0,186.66666666666669)"><line stroke="currentColor" x2="-6"/><text fill="currentColor" x="-9" dy="0.32em">6</text></g><g class="tick" opacity="1" transform="translate(0,124.44444444444444)"><line stroke="currentColor" x2="-6"/><text fill="currentColor" x="-9" dy="0.32em">7</text></g><g class="tick" opacity="1" transform="translate(0,62.22222222222225)"><line stroke="currentColor" x2="-6"/><text fill="currentColor" x="-9" dy="0.32em">8</text></g><g class="tick" opacity="1" transform="translate(0,0)"><line stroke="currentColor" x2="-6"/><text fill="currentColor" x="-9" dy="0.32em">9</text></g><text x="4" text-anchor="start" dominant-baseline="hanging" style="font-family: Arial, sans-serif; font-size: 12px; fill: rgb(123, 123, 123); font-weight: bold;">Puntuación [mean]</text></g></g><text y="4" x="4" style="font-family: Arial, sans-serif; font-size: 12px; fill: black; font-weight: bold; dominant-baseline: hanging;"/></g></g></svg>